<?xml version="1.0" encoding="utf-8"?>
<!-- Generator: Adobe Illustrator 24.1.1, SVG Export Plug-In . SVG Version: 6.00 Build 0)  -->
<svg version="1.1" id="Capa_1" xmlns="http://www.w3.org/2000/svg" xmlns:xlink="http://www.w3.org/1999/xlink" x="0px" y="0px"
	 viewBox="0 0 374.54 425.2" style="enable-background:new 0 0 374.54 425.2;" xml:space="preserve">
<style type="text/css">
	.st0{fill:#F7F8F8;}
	.st1{fill:url(#SVGID_1_);}
	.st2{fill:url(#SVGID_2_);}
	.st3{fill:url(#SVGID_3_);}
	.st4{filter:url(#Adobe_OpacityMaskFilter);}
	.st5{filter:url(#Adobe_OpacityMaskFilter_1_);}
	.st6{mask:url(#SVGID_4_);fill:url(#SVGID_5_);}
	.st7{fill:url(#SVGID_6_);}
	.st8{fill:#E0040B;}
	.st9{fill:#FFFFFF;}
</style>
<rect class="st0" width="374.54" height="425.2"/>
<g>
	<linearGradient id="SVGID_1_" gradientUnits="userSpaceOnUse" x1="46.3438" y1="179.6372" x2="328.1934" y2="179.6372">
		<stop  offset="0" style="stop-color:#5C5B5F"/>
		<stop  offset="0.1879" style="stop-color:#C3C5CA"/>
		<stop  offset="0.4606" style="stop-color:#FFFFFF"/>
		<stop  offset="0.6909" style="stop-color:#89878C"/>
		<stop  offset="1" style="stop-color:#434041"/>
	</linearGradient>
	<path class="st1" d="M187.27,38.71c-77.7,0-140.92,63.22-140.92,140.92c0,77.71,63.22,140.92,140.92,140.92
		c77.71,0,140.93-63.22,140.93-140.92C328.19,101.93,264.97,38.71,187.27,38.71z M187.27,263.89c-46.46,0-84.25-37.79-84.25-84.25
		c0-46.46,37.79-84.25,84.25-84.25c46.46,0,84.25,37.79,84.25,84.25C271.52,226.09,233.72,263.89,187.27,263.89z"/>
	<linearGradient id="SVGID_2_" gradientUnits="userSpaceOnUse" x1="187.2657" y1="312.3164" x2="187.2657" y2="46.957">
		<stop  offset="0" style="stop-color:#5C5B5F"/>
		<stop  offset="0.1879" style="stop-color:#C3C5CA"/>
		<stop  offset="0.3636" style="stop-color:#F7F8F8"/>
		<stop  offset="0.6909" style="stop-color:#89878C"/>
		<stop  offset="1" style="stop-color:#434041"/>
	</linearGradient>
	<path class="st2" d="M187.27,46.96c-73.16,0-132.68,59.52-132.68,132.68c0,73.16,59.52,132.68,132.68,132.68
		c73.16,0,132.68-59.52,132.68-132.68C319.94,106.48,260.43,46.96,187.27,46.96z M187.27,272.13c-51,0-92.49-41.49-92.49-92.49
		c0-51,41.49-92.49,92.49-92.49c51,0,92.5,41.49,92.5,92.49C279.76,230.64,238.27,272.13,187.27,272.13z"/>
	<radialGradient id="SVGID_3_" cx="187.2677" cy="179.6377" r="134.9864" gradientUnits="userSpaceOnUse">
		<stop  offset="0" style="stop-color:#E01A1A"/>
		<stop  offset="0.5699" style="stop-color:#DE1515"/>
		<stop  offset="1" style="stop-color:#D9090E"/>
	</radialGradient>
	<path class="st3" d="M306.2,179.64c0,65.69-53.25,118.94-118.94,118.94c-65.68,0-118.93-53.25-118.93-118.94
		c0-65.69,53.25-118.94,118.93-118.94C252.96,60.7,306.2,113.95,306.2,179.64z"/>
	<defs>
		<filter id="Adobe_OpacityMaskFilter" filterUnits="userSpaceOnUse" x="77.35" y="69.72" width="219.83" height="219.83">
			<feFlood  style="flood-color:white;flood-opacity:1" result="back"/>
			<feBlend  in="SourceGraphic" in2="back" mode="normal"/>
		</filter>
	</defs>
	<mask maskUnits="userSpaceOnUse" x="77.35" y="69.72" width="219.83" height="219.83" id="SVGID_4_">
		<g class="st4">
			<defs>
				<filter id="Adobe_OpacityMaskFilter_1_" filterUnits="userSpaceOnUse" x="77.35" y="69.72" width="219.83" height="219.83">
					<feFlood  style="flood-color:white;flood-opacity:1" result="back"/>
					<feBlend  in="SourceGraphic" in2="back" mode="normal"/>
				</filter>
			</defs>
			<mask maskUnits="userSpaceOnUse" x="77.35" y="69.72" width="219.83" height="219.83" id="SVGID_4_">
				<g class="st5">
				</g>
			</mask>
			<linearGradient id="SVGID_5_" gradientUnits="userSpaceOnUse" x1="187.2666" y1="289.5508" x2="187.2666" y2="69.7217">
				<stop  offset="0.1091" style="stop-color:#000000"/>
				<stop  offset="0.4411" style="stop-color:#020202"/>
				<stop  offset="0.5607" style="stop-color:#090909"/>
				<stop  offset="0.6459" style="stop-color:#141414"/>
				<stop  offset="0.7149" style="stop-color:#252525"/>
				<stop  offset="0.7739" style="stop-color:#3B3B3B"/>
				<stop  offset="0.8262" style="stop-color:#575757"/>
				<stop  offset="0.8736" style="stop-color:#777777"/>
				<stop  offset="0.9171" style="stop-color:#9D9D9D"/>
				<stop  offset="0.9575" style="stop-color:#C8C8C8"/>
				<stop  offset="0.9934" style="stop-color:#F6F6F6"/>
				<stop  offset="1" style="stop-color:#FFFFFF"/>
			</linearGradient>
			<path class="st6" d="M297.18,179.64c0,60.7-49.21,109.91-109.92,109.91c-60.71,0-109.91-49.21-109.91-109.91
				c0-60.71,49.21-109.92,109.91-109.92C247.97,69.72,297.18,118.93,297.18,179.64z"/>
		</g>
	</mask>
	<linearGradient id="SVGID_6_" gradientUnits="userSpaceOnUse" x1="187.2666" y1="289.5508" x2="187.2666" y2="69.7217">
		<stop  offset="0.1091" style="stop-color:#FFFFFF"/>
		<stop  offset="0.8741" style="stop-color:#FFFFFF"/>
		<stop  offset="1" style="stop-color:#FFFFFF"/>
	</linearGradient>
	<path class="st7" d="M297.18,179.64c0,60.7-49.21,109.91-109.92,109.91c-60.71,0-109.91-49.21-109.91-109.91
		c0-60.71,49.21-109.92,109.91-109.92C247.97,69.72,297.18,118.93,297.18,179.64z"/>
</g>
<g>
	<g>
		<path class="st8" d="M120.06,367.76h-3.9l-0.67-4.46h-4.74l-0.67,4.46h-3.55l3.94-24.6h5.66L120.06,367.76z M111.24,359.96h3.73
			l-1.86-12.44L111.24,359.96z"/>
		<path class="st8" d="M133.02,358.59v3.27c0,3.94-1.97,6.18-5.76,6.18c-3.8,0-5.76-2.25-5.76-6.18v-12.79
			c0-3.94,1.97-6.18,5.76-6.18c3.8,0,5.76,2.25,5.76,6.18v2.39h-3.65v-2.64c0-1.76-0.77-2.42-2-2.42c-1.23,0-2,0.67-2,2.42v13.28
			c0,1.76,0.77,2.39,2,2.39c1.23,0,2-0.63,2-2.39v-3.51H133.02z"/>
		<path class="st8" d="M146.58,358.59v3.27c0,3.94-1.97,6.18-5.76,6.18s-5.76-2.25-5.76-6.18v-12.79c0-3.94,1.97-6.18,5.76-6.18
			s5.76,2.25,5.76,6.18v2.39h-3.65v-2.64c0-1.76-0.77-2.42-2-2.42s-2,0.67-2,2.42v13.28c0,1.76,0.77,2.39,2,2.39s2-0.63,2-2.39
			v-3.51H146.58z"/>
		<path class="st8" d="M152.8,353.53h5.31v3.51h-5.31v7.2h6.68v3.51h-10.54v-24.6h10.54v3.51h-6.68V353.53z"/>
		<path class="st8" d="M167.07,342.88c3.76,0,5.69,2.25,5.69,6.18v0.77h-3.65v-1.02c0-1.76-0.7-2.42-1.93-2.42
			c-1.23,0-1.93,0.67-1.93,2.42c0,5.06,7.56,6.01,7.56,13.04c0,3.94-1.97,6.18-5.76,6.18c-3.79,0-5.76-2.25-5.76-6.18v-1.51h3.65
			v1.76c0,1.76,0.77,2.39,2,2.39c1.23,0,2-0.63,2-2.39c0-5.06-7.56-6.01-7.56-13.04C161.37,345.13,163.31,342.88,167.07,342.88z"/>
		<path class="st8" d="M180.21,342.88c3.76,0,5.69,2.25,5.69,6.18v0.77h-3.65v-1.02c0-1.76-0.7-2.42-1.93-2.42
			c-1.23,0-1.93,0.67-1.93,2.42c0,5.06,7.56,6.01,7.56,13.04c0,3.94-1.97,6.18-5.76,6.18c-3.79,0-5.76-2.25-5.76-6.18v-1.51h3.65
			v1.76c0,1.76,0.77,2.39,2,2.39c1.23,0,2-0.63,2-2.39c0-5.06-7.56-6.01-7.56-13.04C174.51,345.13,176.45,342.88,180.21,342.88z"/>
		<path class="st8" d="M193.59,343.17h6.11c3.87,0,5.76,2.14,5.76,6.08v12.44c0,3.94-1.9,6.08-5.76,6.08h-6.11V343.17z
			 M197.46,346.68v17.57h2.18c1.23,0,1.97-0.63,1.97-2.39v-12.79c0-1.76-0.74-2.39-1.97-2.39H197.46z"/>
		<path class="st8" d="M211.79,353.53h5.31v3.51h-5.31v7.2h6.68v3.51h-10.54v-24.6h10.54v3.51h-6.68V353.53z"/>
		<path class="st8" d="M224.3,349.95v17.82h-3.48v-24.6h4.85l3.97,14.72v-14.72h3.44v24.6h-3.97L224.3,349.95z"/>
		<path class="st8" d="M235.86,343.17h3.87v24.6h-3.87V343.17z"/>
		<path class="st8" d="M246.4,353.53h5.31v3.51h-5.31v7.2h6.68v3.51h-10.54v-24.6h10.54v3.51h-6.68V353.53z"/>
		<path class="st8" d="M255.47,343.17h6.11c3.87,0,5.76,2.14,5.76,6.08v12.44c0,3.94-1.9,6.08-5.76,6.08h-6.11V343.17z
			 M259.33,346.68v17.57h2.18c1.23,0,1.97-0.63,1.97-2.39v-12.79c0-1.76-0.74-2.39-1.97-2.39H259.33z"/>
	</g>
</g>
<path class="st9" d="M133.43,226.96c0,33.51,29.73,34.48,30.1,34.48l46.51-0.14c10.72,0,30.98-6.51,30.98-31.15l0.09-34.38
	l0.09,0.06v-40.06c0-4.93-4.13-8.93-9.21-8.93c-5.08,0-9.21,4.01-9.21,8.93l0.02,38.13l-2.35-0.17c-0.2,0-5.52,0.05-9.83,4.31
	c-3.81,3.76-5.75,9.66-5.75,17.53v1.08h-4.22v-1.08c0-9.07,2.37-15.99,7.04-20.57c3.84-3.78,8.47-4.95,11.02-5.31l0.04-70.81
	c-0.89-4.14-4.63-7.09-9.05-7.09c-5.1,0-9.25,4-9.25,8.93v55.37h-3.92v-69.31c0-4.92-4.15-8.93-9.25-8.93
	c-5.1,0-9.25,4.01-9.25,8.93v69.31h-4.06v-61.21c0-4.93-4.15-8.93-9.25-8.93c-5.1,0-9.25,4-9.25,8.93v61.21h-3.66v-41.55
	c0-4.92-4.15-8.93-9.26-8.93c-5.1,0-9.25,4.01-9.25,8.93L133.43,226.96z"/>
</svg>
